<?xml version="1.0" encoding="UTF-8" standalone="no"?>
<svg
   xmlns:dc="http://purl.org/dc/elements/1.1/"
   xmlns:cc="http://creativecommons.org/ns#"
   xmlns:rdf="http://www.w3.org/1999/02/22-rdf-syntax-ns#"
   xmlns:svg="http://www.w3.org/2000/svg"
   xmlns="http://www.w3.org/2000/svg"
   xmlns:sodipodi="http://sodipodi.sourceforge.net/DTD/sodipodi-0.dtd"
   xmlns:inkscape="http://www.inkscape.org/namespaces/inkscape"
   version="1.1"
   id="svg2"
   viewBox="0 0 675.48929 916.51067"
   height="10.183452in"
   width="7.5054364in"
   inkscape:version="0.91 r13725"
   sodipodi:docname="Logo.svg">
  <sodipodi:namedview
     pagecolor="#ffffff"
     bordercolor="#666666"
     borderopacity="1"
     objecttolerance="10"
     gridtolerance="10"
     guidetolerance="10"
     inkscape:pageopacity="0"
     inkscape:pageshadow="2"
     inkscape:window-width="1440"
     inkscape:window-height="810"
     id="namedview72"
     showgrid="false"
     inkscape:zoom="0.1234103"
     inkscape:cx="2118.3906"
     inkscape:cy="697.19918"
     inkscape:window-x="0"
     inkscape:window-y="0"
     inkscape:window-maximized="1"
     inkscape:current-layer="svg2"
     showguides="true"
     inkscape:guide-bbox="true"
     fit-margin-top="0"
     fit-margin-left="0"
     fit-margin-right="0"
     fit-margin-bottom="0" />
  <defs
     id="defs4" />
  <metadata
     id="metadata7">
    <rdf:RDF>
      <cc:Work
         rdf:about="">
        <dc:format>image/svg+xml</dc:format>
        <dc:type
           rdf:resource="http://purl.org/dc/dcmitype/StillImage" />
        <dc:title></dc:title>
      </cc:Work>
    </rdf:RDF>
  </metadata>
  <path
     inkscape:connector-curvature="0"
     style="fill:#134f2b;fill-opacity:1"
     d="m 373.42516,898.59576 c -33.4903,-0.7201 -40.4384,-1.8663 -55.0691,-9.0844 -42.5307,-20.9827 -69.1753,-72.9162 -75.6335,-147.4187 -3.5318,-40.7433 2.5314,-93.20831 14.4227,-124.80071 19.8807,-52.818 63.5622,-85.7341 112.7279,-84.946 54.2289,0.8693 95.9056,34.854 108.5934,88.5509 1.8367,7.7735 2.717,13.9374 2.0812,14.5732 -0.606,0.606 -15.8712,4.2374 -33.9226,8.0698 -27.6339,5.8668 -33.0767,6.6981 -34.4407,5.2604 -0.8911,-0.9392 -2.5744,-5.0826 -3.7408,-9.2076 -3.2266,-11.4112 -11.4731,-26.3203 -17.3322,-31.3355 -13.9029,-11.9003 -34.2645,-9.9068 -48.5846,4.7569 -11.5869,11.8648 -19.3982,32.9524 -22.81,61.5786 -6.9113,57.98811 0.637,113.69621 18.5954,137.24101 8.3427,10.9378 28.1551,17.7053 51.3629,17.5445 14.8043,-0.1027 23.7159,-1.9775 43.125,-9.0729 38.3228,-11.27 52.2928,-20.2565 82.5274,-51.8747 21.4656,-22.6967 35.3191,-51.382 41.3949,-85.71291 2.4913,-14.0771 2.1314,-50.5749 -0.6255,-63.4344 -5.1414,-23.9816 -15.8077,-48.0557 -29.3911,-66.3359 -7.7659,-10.4514 -27.9868,-30.1873 -39.5307,-38.5828 -29.6828,-21.5873 -74.2348,-38.0173 -121.25,-44.7151 -28.6196,-4.0771 -36.7465,-4.6146 -83.5255,-5.5244 l -40.2246,-0.7824 -0.3375,-27.4107 c -0.2241,-18.1936 0.105,-27.6843 0.9783,-28.2241 0.7237,-0.4473 12.9694,-0.8878 27.2125,-0.979 102.3521,-0.6551 183.1867,-41.4749 217.5758,-109.8714 20.1363,-40.0492 18.8035,-99.0243 -3.1405,-138.95337 -6.1403,-11.17294 -18.9261,-28.38552 -26.0338,-35.04735 -41.5959,-38.986873 -101.7104,-56.368713 -190.0048,-54.939053 l -26.25,0.42504 0,-33.7288 0,-33.72880006 4.375,-0.66201 c 2.4062,-0.36411 23.7812,-0.27283 47.5,0.20285 91.372,1.83244996 149.7537,10.32689006 200.8415,29.22207006 49.3708,18.26015 92.5557,62.32984 111.4122,113.694693 18.9621,51.65293 12.5588,113.15753 -16.9892,163.18223 -25.4871,43.1495 -72.8025,82.0615 -123.2172,101.3331 -7.6896,2.9395 -11.4733,5.0835 -12.3713,7.0101 -2.0947,4.4946 0.5338,6.0371 14.3802,8.4389 27.7169,4.8078 59.7276,16.5634 85.8429,31.525 183.80921,112.6048 149.9341,360.30501 -39.7301,424.12021 -45.5075,14.627 -96.2484,20.2978 -140.7939,19.6435 z"
     id="path4328" />
  <path
     inkscape:connector-curvature="0"
     style="fill:#b7bf10;fill-opacity:1"
     d="m 486.92036,839.63566 c 0,-72.3416 -0.129,-76.8811 -2.1875,-76.9782 -1.2031,-0.057 -20.5855,-0.1974 -43.072,-0.3125 l -40.8845,-0.2093 -0.3655,6.875 c -0.201,3.7812 -0.1898,12.9219 0.025,20.3125 l 0.3905,13.4375 21.5685,0 21.5684,0 2.209,9.6875 c 3.6554,16.0312 11.8167,50.7506 17.7032,75.3125 3.0482,12.7187 5.8348,24.3906 6.1924,25.9375 0.5919,2.5605 1.3761,2.8125 8.7514,2.8125 l 8.1012,0 0,-76.875 z m -280.5528,60.3444 c 0.4147,-0.4147 1.0327,-490.20021 0.6218,-492.84441 -0.1068,-0.6875 -0.1393,-92.0938 -0.072,-203.125 l 0.122,-201.8750631 -15.9969,0.16429 c -83.2795,0.85527 -180.398001,2.02328 -183.1244015,2.20238 -1.8577,0.12203 -3.62,0.4832 -3.9163,0.8026 -1.3072,1.40941 -2.6995,40.5288101 -2.1391,60.1039301 0.048,1.68658 1.8777,2.06355 10.9955005,2.26573 6.0156,0.13338 14.5937,0.44542 19.0625,0.69342 4.4687,0.248 17.9687,0.78048 30,1.18328 12.0312,0.4028 26.6562,1.07 32.5,1.48265 l 10.625001,0.75028 -0.1862,379.895503 c -0.1348,275.07911 -0.567,380.35431 -1.5665,381.55851 -1.0328,1.2445 -8.380101,1.8699 -29.188801,2.4846 -47.9713,1.417 -71.5294005,2.3358 -72.3812005,2.823 -0.4525,0.2588 -0.95519997,9.3286 -1.11719997,20.1552 -0.162,10.8266 -0.4113,24.4659 -0.554,30.3097 -0.1427,5.8437 0.02,11.1252 0.3611,11.7366 0.5714,1.0236 204.92550147,0.2623 205.95490147,-0.7672 z"
     id="path4326" />
  <text
     sodipodi:linespacing="125%"
     id="text4383"
     y="799.81122"
     x="1199.6791"
     style="font-style:normal;font-variant:normal;font-weight:normal;font-stretch:normal;font-size:159.91145325px;line-height:125%;font-family:Vecna;-inkscape-font-specification:Vecna;letter-spacing:0px;word-spacing:0px;fill:#000000;fill-opacity:1;stroke:none;stroke-width:1px;stroke-linecap:butt;stroke-linejoin:miter;stroke-opacity:1"
     xml:space="preserve"><tspan
       y="799.81122"
       x="1199.6791"
       id="tspan4385" /></text>
  <flowRoot
     xml:space="preserve"
     id="flowRoot4451"
     style="font-style:normal;font-weight:normal;font-size:180px;line-height:125%;font-family:Sans;letter-spacing:0px;word-spacing:0px;fill:#000000;fill-opacity:1;stroke:none;stroke-width:1px;stroke-linecap:butt;stroke-linejoin:miter;stroke-opacity:1"
     transform="translate(1146.7672,271.61839)"><flowRegion
       id="flowRegion4453"><rect
         id="rect4455"
         width="484.20618"
         height="704.85712"
         x="53.119667"
         y="193.205" /></flowRegion><flowPara
       id="flowPara4457" /></flowRoot>  <flowRoot
     xml:space="preserve"
     id="flowRoot4459"
     style="font-style:normal;font-weight:normal;font-size:180px;line-height:125%;font-family:Sans;letter-spacing:0px;word-spacing:0px;fill:#000000;fill-opacity:1;stroke:none;stroke-width:1px;stroke-linecap:butt;stroke-linejoin:miter;stroke-opacity:1"
     transform="translate(1146.7672,333.98054)"><flowRegion
       id="flowRegion4461"><rect
         id="rect4463"
         width="476.03394"
         height="723.24469"
         x="65.378052"
         y="187.07581" /></flowRegion><flowPara
       id="flowPara4465">Audience and Possible use: Fans of Dr. Horrible's Sing Along Blog.  Kinetic Typographics are a popular form of Youtube video and in addition to an interesting video they have also been seen as commercials on television.</flowPara></flowRoot>  <flowRoot
     xml:space="preserve"
     id="flowRoot4467"
     style="font-style:normal;font-weight:normal;font-size:180px;line-height:125%;font-family:Sans;letter-spacing:0px;word-spacing:0px;fill:#000000;fill-opacity:1;stroke:none;stroke-width:1px;stroke-linecap:butt;stroke-linejoin:miter;stroke-opacity:1"
     transform="translate(1146.7672,333.98054)"><flowRegion
       id="flowRegion4469"><rect
         id="rect4471"
         width="492.37845"
         height="226.78012"
         x="40.861282"
         y="219.76483" /></flowRegion><flowPara
       id="flowPara4473">Audience and Possible use: Fans of Dr. Horrible's Sing Along Blog.  Kinetic Typographics are a popular form of Youtube video and in addition to an interesting video they have also been seen as commercials on television.</flowPara></flowRoot>  <text
     sodipodi:linespacing="125%"
     id="text4390"
     y="1597.1837"
     x="1588.9106"
     style="font-style:normal;font-variant:normal;font-weight:normal;font-stretch:normal;font-size:14.77093983px;line-height:125%;font-family:Helvetica;-inkscape-font-specification:Helvetica;text-align:end;letter-spacing:0px;word-spacing:0px;text-anchor:end;fill:#000000;fill-opacity:1;stroke:none;stroke-width:1px;stroke-linecap:butt;stroke-linejoin:miter;stroke-opacity:1"
     xml:space="preserve"><tspan
       style="font-style:normal;font-variant:normal;font-weight:normal;font-stretch:normal;font-family:Helvetica;-inkscape-font-specification:Helvetica;text-align:end;text-anchor:end;fill:#000000;fill-opacity:1"
       y="1597.1837"
       x="1588.9106"
       id="tspan4392"
       sodipodi:role="line" /></text>
</svg>
