<?xml version="1.0" encoding="utf-8"?>
<!-- Generator: Adobe Illustrator 19.0.1, SVG Export Plug-In . SVG Version: 6.00 Build 0)  -->
<svg version="1.1"
	 id="svg4203" inkscape:export-filename="/Users/13rettgraves/Dropbox/Class/2016Spring/COMSomin-Portfolio/ToC.png" inkscape:export-xdpi="300" inkscape:version="0.91 r13725" inkscape:export-ydpi="300" sodipodi:docname="V&amp;A icon.svg" xmlns:svg="http://www.w3.org/2000/svg" xmlns:rdf="http://www.w3.org/1999/02/22-rdf-syntax-ns#" xmlns:cc="http://creativecommons.org/ns#" xmlns:inkscape="http://www.inkscape.org/namespaces/inkscape" xmlns:dc="http://purl.org/dc/elements/1.1/" xmlns:sodipodi="http://sodipodi.sourceforge.net/DTD/sodipodi-0.dtd"
	 xmlns="http://www.w3.org/2000/svg" xmlns:xlink="http://www.w3.org/1999/xlink" x="0px" y="0px" viewBox="-356 257.4 86.6 86.6"
	 style="enable-background:new -356 257.4 86.6 86.6;" xml:space="preserve">
<style type="text/css">
	.st0{fill:#134E2A;}
	.st1{fill:#B6BE11;}
	.st2{fill:#F0FFEB;}
</style>
<sodipodi:namedview  inkscape:window-width="1440" inkscape:pageopacity="0.0" inkscape:window-height="808" inkscape:guide-bbox="true" fit-margin-right="0" fit-margin-bottom="0" inkscape:document-units="px" inkscape:window-x="0" inkscape:current-layer="layer1" inkscape:window-y="23" inkscape:window-maximized="0" inkscape:pageshadow="2" borderopacity="1.0" inkscape:zoom="0.5452411" showguides="true" inkscape:cx="-545.0442" borderlayer="true" pagecolor="#ffffff" fit-margin-top="0" id="base" inkscape:cy="-278.46264" fit-margin-left="0" bordercolor="#666666" showgrid="false">
	<sodipodi:guide  id="guide4195" orientation="0,1" position="-629.09477,-63.143954"></sodipodi:guide>
	<sodipodi:guide  id="guide4204" orientation="0,1" position="-700.28627,-285.82509"></sodipodi:guide>
	<sodipodi:guide  id="guide4206" orientation="0,1" position="-719.73932,-507.58985"></sodipodi:guide>
</sodipodi:namedview>
<path id="path4783" inkscape:connector-curvature="0" sodipodi:nodetypes="cssssssssssssssssssccsscssssscssssssssssscccsssssssssssssscc" class="st0" d="
	M-2173.8,845.6c-10.6,1.2-57.5,1.7-65.9,0.8c-11.4-1.3-19.9-4.5-30.5-11.5c-23.2-15.4-39.4-43.9-47.3-82.8
	c-3.7-18.4-4.7-28.8-4.7-49.6c0-21.9,1.2-35,5.1-54.6c5.7-28.7,16.6-50.2,33.9-66.8c8.2-8,14-12.1,23.3-16.8
	c13.8-6.9,26-9.4,42.6-8.8c39.1,1.6,69.4,25,81.3,62.9c2.8,8.8,4.2,17.4,3.2,18.5c-0.9,0.9-27.3,6.9-42.5,9.7
	c-11.7,2.1-11.1,2.4-14.2-6.9c-2.3-7-7.1-16.4-10.5-20.9c-3-3.9-7.9-7.1-13.5-8.7c-13.6-3.9-28.5,4.3-36.7,20.3
	c-6.4,12.4-9.4,24.7-11.5,46.6c-1.5,16.2-1.1,43.9,0.9,57.5c3.1,21.1,9.6,38.9,16.9,46.2c7.7,7.7,21.3,11.8,39.1,11.8
	c28.4-1.7,61-13.4,83.6-31.8c7.9-6.6,20.9-20.2,26.9-28.3c10.1-13.6,18.6-33.4,22.8-53c1.6-7.3,1.8-10.7,1.8-27.6
	c0-14.9-0.3-20.8-1.4-26.3c-3.1-15.7-11.1-35.1-20.2-49.1c-5.1-7.8-21.8-25.4-31.7-33.3c-17.2-13.8-43.5-25.7-73.1-33.1
	c-26.3-6.6-45.6-8.7-91.1-9.8c-18.9-0.5-34.6-1.1-34.8-1.3s-0.4-9.7-0.4-21.1c0-15.1,0.3-21,1-21.7c0.7-0.7,7.4-1.2,22-1.6
	c38-1.1,61.6-5.3,88.4-15.6c23-8.8,41.5-20.4,57.4-35.5c20.5-19.6,32.3-40.7,37-66c2.3-12.1,2.1-36.8-0.3-49
	c-2-10-6.2-22.8-9.9-30.2c-6.2-12.2-18.6-28.2-28.1-36.1c-26.6-22.1-59.9-33.9-107.4-38c-5.7-0.5-21.5-0.9-35-0.9h-24.6l-0.2-26.8
	l-0.2-26.8l3.6-0.5c9.4-1.4,78.3,1.3,106.8,4.1c39.9,4,76.8,12.6,99.9,23.1c42.7,19.5,76.9,62.1,86,107.3c6.5,31.9,1.9,67-12.8,97.8
	c-13.4,28.3-37,54.2-67.2,74c-8.9,5.8-27.3,15.3-38,19.6c-7,2.8-10,5-10,7.4c0,2.1,3.1,3.6,11.2,5.2c21.9,4.4,40.9,10.8,60.1,20.5
	c28.7,14.4,57.4,40.3,76.2,68.8c6.7,10.1,16.2,29.4,20,40.5c11.6,33.7,13.3,69.1,4.8,103.5c-6,24.5-18.3,49.3-34.7,70
	c-15.1,19-39.3,38.4-63,50.3C-2109.1,834.8-2142.8,842.1-2173.8,845.6L-2173.8,845.6z"/>
<path id="path4788" inkscape:connector-curvature="0" class="st1" d="M-2131.2,733.8c-0.1-0.7-14-1-33.7-1.2
	c-31.8-0.4-32.9-0.4-33.5,1.1c-0.7,1.8-0.7,28.3,0,30.2c0.4,1.1,2.5,1.3,17.3,1.3h16.8l0.8,3l17.2,73.5c3.4,13.7,3.4,13.8,6.7,14.1
	c1.6,0.2,4.4,0.3,6.2,0.2l3.2-0.1L-2131.2,733.8z"/>
<path id="path4776" inkscape:connector-curvature="0" class="st1" d="M-2378.4,124.9c-43.1,0.1-129.1,1-133.5,1.6
	c-2.4,0.3-3.7,0.9-4.3,2.1c-0.6,1.1-0.9,9.3-1,24.6l-0.1,22.9l4.4,0.6c2.4,0.3,20,1.1,39.1,1.8c19.1,0.7,35.5,1.6,36.6,2l1.9,0.7
	v227.5c0,264.4-0.6,378.4-2,380.3c-1.1,1.5-10.2,2.1-51.6,3.5c-19.4,0.6-27.9,1.2-28.5,1.8c-1,1.1-2.5,45.7-1.6,48.1
	c0.5,1.3,6.2,1.3,82.1,1.1c44.8-0.1,81.8-0.6,82.2-0.9c0.8-0.8,1.3-716.6,0.5-717.4C-2354.5,124.8-2364.1,124.8-2378.4,124.9
	L-2378.4,124.9z"/>
<g id="g4965" transform="translate(229.14799,130.88193)">
	<rect id="rect4846" x="-573.1" y="154.9" class="st2" width="47" height="29"/>
	
		<path id="path4848" inkscape:transform-center-x="6.963368" inkscape:randomized="0" inkscape:rounded="0" inkscape:flatsided="true" sodipodi:type="star" sodipodi:sides="3" sodipodi:cy="42.052799" sodipodi:r1="27.853621" sodipodi:arg2="4.1887902" sodipodi:arg1="3.1415927" sodipodi:cx="684.53229" sodipodi:r2="13.92681" class="st2" d="
		M-536.7,169.8l26.1-15.1v30.2L-536.7,169.8z"/>
</g>
</svg>
